<svg width="16" height="16" viewBox="0 0 16 16" fill="none" xmlns="http://www.w3.org/2000/svg">
    <path d="M5.49981 15.075V11.625L2.9248 13.525C3.6498 14.2 4.52481 14.725 5.49981 15.075Z" fill="#2A5F9E"/>
    <path d="M10.5 15.075C11.475 14.725 12.35 14.2 13.075 13.525L10.5 11.6V15.075Z" fill="#2A5F9E"/>
    <path d="M0.924805 10.5C0.999805 10.75 1.0998 10.975 1.2248 11.225L2.1998 10.5H0.924805Z" fill="#2A5F9E"/>
    <path d="M13.7998 10.5L14.7748 11.225C14.8748 11 14.9748 10.75 15.0748 10.5H13.7998Z" fill="#2A5F9E"/>
    <path d="M5.8749 9.5H0.649902C0.724902 9.85 0.824902 10.175 0.924902 10.5H2.1999L1.2249 11.225C1.4249 11.65 1.6499 12.025 1.9249 12.4L4.4999 10.5H5.4999V11L2.5749 13.15L2.9249 13.5L5.4999 11.625V15.075C5.8249 15.2 6.1499 15.275 6.4999 15.35V9.5H5.8749Z" fill="white"/>
    <path d="M15.35 9.5H9.5V15.35C9.85 15.275 10.175 15.175 10.5 15.075V11.625L13.075 13.5C13.425 13.175 13.725 12.825 14.025 12.45L11.35 10.5H13.05L14.575 11.625C14.65 11.5 14.725 11.35 14.775 11.225L13.8 10.5H15.075C15.175 10.175 15.275 9.85 15.35 9.5Z" fill="white"/>
    <path d="M1.9248 12.4C2.1248 12.675 2.3248 12.925 2.5498 13.175L5.49981 11.025V10.525H4.49981L1.9248 12.4Z" fill="#ED4C5C"/>
    <path d="M11.375 10.5L14.05 12.45C14.15 12.325 14.225 12.2 14.325 12.075C14.35 12.05 14.35 12.025 14.375 12.025C14.45 11.9 14.55 11.75 14.625 11.625L13.05 10.5H11.375Z" fill="#ED4C5C"/>
    <path d="M10.5 0.925049V4.37505L13.075 2.47505C12.35 1.80005 11.475 1.27505 10.5 0.925049Z" fill="#2A5F9E"/>
    <path d="M5.49981 0.925049C4.52481 1.27505 3.6498 1.80005 2.9248 2.47505L5.49981 4.40005V0.925049Z" fill="#2A5F9E"/>
    <path d="M15.0748 5.50002C14.9998 5.25002 14.8998 5.02502 14.7748 4.77502L13.7998 5.50002H15.0748Z" fill="#2A5F9E"/>
    <path d="M2.1998 5.50002L1.2248 4.77502C1.1248 5.02502 1.0248 5.25002 0.924805 5.50002H2.1998Z" fill="#2A5F9E"/>
    <path d="M10.125 6.50002H15.325C15.25 6.15002 15.15 5.82502 15.05 5.50002H13.775L14.75 4.77502C14.55 4.35002 14.325 3.97502 14.05 3.60002L11.5 5.50002H10.5V5.00002L13.425 2.85002L13.075 2.50002L10.5 4.37502V0.925024C10.175 0.800024 9.85 0.725024 9.5 0.650024V6.50002H10.125Z" fill="white"/>
    <path d="M0.649902 6.50002H6.4999V0.650024C6.1499 0.725024 5.8249 0.825024 5.4999 0.925024V4.37502L2.9249 2.50002C2.5749 2.82502 2.2749 3.17502 1.9749 3.55002L4.6499 5.50002H2.9499L1.4249 4.37502C1.3499 4.50002 1.2749 4.65002 1.2249 4.77502L2.1999 5.50002H0.924902C0.824902 5.82502 0.724902 6.15002 0.649902 6.50002Z" fill="white"/>
    <path d="M14.075 3.59995C13.875 3.32495 13.675 3.07495 13.45 2.82495L10.5 4.97495V5.47495H11.5L14.075 3.59995Z" fill="#ED4C5C"/>
    <path d="M4.6249 5.50005L1.9749 3.55005C1.8749 3.67505 1.7999 3.80005 1.6999 3.92505C1.6749 3.95005 1.6749 3.97505 1.6499 3.97505C1.5749 4.10005 1.4749 4.25005 1.3999 4.37505L2.9249 5.50005H4.6249Z" fill="#ED4C5C"/>
    <path d="M15.35 6.5H9.5V0.65C9.025 0.55 8.525 0.5 8 0.5C7.475 0.5 6.975 0.55 6.5 0.65V6.5H0.65C0.55 6.975 0.5 7.475 0.5 8C0.5 8.525 0.55 9.025 0.65 9.5H6.5V15.35C6.975 15.45 7.475 15.5 8 15.5C8.525 15.5 9.025 15.45 9.5 15.35V9.5H15.35C15.45 9.025 15.5 8.525 15.5 8C15.5 7.475 15.45 6.975 15.35 6.5Z" fill="#ED4C5C"/>
</svg>
