<svg width="16" height="16" viewBox="0 0 16 16" fill="none" xmlns="http://www.w3.org/2000/svg">
    <path d="M0.5 8C0.5 9.475 0.925 10.85 1.65 12H14.325C15.05 10.85 15.475 9.475 15.475 8C15.475 6.525 15.05 5.15 14.325 4H1.65C0.925 5.15 0.5 6.525 0.5 8Z" fill="#FFCE31"/>
    <path d="M14.3499 4C13.0249 1.9 10.6749 0.5 7.9999 0.5C5.3249 0.5 2.9749 1.9 1.6499 4H14.3499Z" fill="#ED4C5C"/>
    <path d="M1.6499 12C2.9749 14.1 5.3249 15.5 7.9999 15.5C10.6749 15.5 13.0249 14.1 14.3499 12H1.6499Z" fill="#ED4C5C"/>
    <path d="M2.29993 7.17505H3.09993V7.62505H2.29993V7.17505Z" fill="#C8B100"/>
    <path d="M2.29993 10.4751H3.12493V10.9001H2.29993V10.4751Z" fill="#C8B100"/>
    <path d="M2.2251 9.77502C2.1501 9.82502 2.1001 9.87502 2.1001 9.90002C2.1001 9.92502 2.1251 9.95003 2.1751 9.97503C2.2251 10 2.2751 10.05 2.2501 10.1C2.3001 10.05 2.3251 10 2.3251 9.95002C2.3251 9.87502 2.2751 9.80002 2.2251 9.77502Z" fill="#ED4C5C"/>
    <path d="M2.42493 7.625H2.99993V10.475H2.42493V7.625Z" fill="white"/>
    <path d="M3.59999 8.675C3.47499 8.625 3.24999 8.575 2.99999 8.575C2.92499 8.575 2.82499 8.575 2.72499 8.6C2.37499 8.65 2.09999 8.8 2.12499 8.9L1.99999 8.625C1.97499 8.5 2.27499 8.35 2.64999 8.275C2.77499 8.25 2.89999 8.25 2.99999 8.25C3.24999 8.25 3.47499 8.275 3.59999 8.325V8.675Z" fill="#ED4C5C"/>
    <path d="M2.4249 9.05C2.2749 9.05 2.1499 9 2.1499 8.925C2.1499 8.875 2.1999 8.8 2.2999 8.75H2.4499L2.4249 9.05Z" fill="#ED4C5C"/>
    <path d="M3 8.82495C3.1 8.84995 3.175 8.87495 3.225 8.89995C3.25 8.92495 3.15 9.02495 3 9.09995V8.82495Z" fill="#ED4C5C"/>
    <path d="M2.04999 9.60003C2.02499 9.55003 2.19999 9.45002 2.42499 9.37502C2.52499 9.35002 2.59999 9.30002 2.72499 9.25002C3.02499 9.12502 3.27499 8.95002 3.22499 8.90002L3.27499 9.20002C3.29999 9.25002 3.09999 9.40003 2.79999 9.55002C2.69999 9.60002 2.52499 9.67502 2.42499 9.70002C2.24999 9.75002 2.09999 9.85002 2.09999 9.87502L2.04999 9.60003Z" fill="#ED4C5C"/>
    <path d="M7.6748 7.17505H8.47481V7.62505H7.6748V7.17505Z" fill="#C8B100"/>
    <path d="M7.6499 10.4751H8.4749V10.9001H7.6499V10.4751Z" fill="#C8B100"/>
    <path d="M8.55007 9.77502C8.62507 9.82502 8.67507 9.87502 8.67507 9.90002C8.67507 9.92502 8.65007 9.95003 8.60007 9.97503C8.55007 10.025 8.50007 10.1 8.52507 10.125C8.47507 10.075 8.45007 10.025 8.45007 9.97503C8.45007 9.87503 8.50007 9.80002 8.55007 9.77502Z" fill="#ED4C5C"/>
    <path d="M7.7749 7.625H8.3499V10.475H7.7749V7.625Z" fill="white"/>
    <path d="M7.17517 8.675C7.30017 8.625 7.52517 8.575 7.77517 8.575C7.85017 8.575 7.95017 8.575 8.05017 8.6C8.40017 8.65 8.67517 8.8 8.65017 8.9L8.77517 8.6C8.80017 8.475 8.50017 8.325 8.12517 8.25H7.77517C7.52517 8.25 7.30017 8.275 7.17517 8.325V8.675Z" fill="#ED4C5C"/>
    <path d="M8.35007 9.05C8.50007 9.05 8.62507 9 8.62507 8.925C8.62507 8.875 8.57507 8.8 8.47507 8.75H8.32507L8.35007 9.05Z" fill="#ED4C5C"/>
    <path d="M7.77509 8.82495C7.67509 8.84995 7.60009 8.87495 7.55009 8.89995C7.52509 8.92495 7.62509 9.02495 7.77509 9.09995V8.82495Z" fill="#ED4C5C"/>
    <path d="M8.72515 9.5999C8.75015 9.5499 8.57515 9.4499 8.35015 9.3749C8.25015 9.3499 8.17515 9.2999 8.05015 9.2499C7.75015 9.1249 7.50015 8.9499 7.55015 8.8999L7.50015 9.1999C7.47515 9.2499 7.67515 9.3999 7.97515 9.5499C8.07515 9.5999 8.25015 9.6749 8.35015 9.6999C8.52515 9.7499 8.67515 9.8749 8.65015 9.8999L8.72515 9.5999Z" fill="#ED4C5C"/>
    <path d="M5.37507 5.57495C5.85007 5.57495 6.82507 5.67495 7.17507 6.02495C6.80007 6.92495 6.20007 6.54995 5.37507 6.54995C4.57507 6.54995 3.95007 6.92495 3.57507 6.02495C3.92507 5.67495 4.87507 5.57495 5.37507 5.57495Z" fill="#ED4C5C"/>
    <path d="M6.60015 6.575C6.30015 6.4 5.85015 6.375 5.37515 6.375C4.90015 6.375 4.45015 6.425 4.15015 6.575L4.25015 7C4.52515 7.075 4.92515 7.125 5.37515 7.125C5.82515 7.125 6.20015 7.075 6.50015 7L6.60015 6.575Z" fill="#C8B100"/>
    <path d="M7.02507 5.5C6.92507 5.425 6.72507 5.35 6.55007 5.35C6.47507 5.35 6.40007 5.35 6.32507 5.375C6.32507 5.375 6.17507 5.175 5.82507 5.175C5.70007 5.175 5.60007 5.2 5.50007 5.25V5.225C5.47507 5.175 5.42507 5.125 5.37507 5.125C5.32507 5.125 5.25007 5.2 5.25007 5.25V5.275C5.15007 5.225 5.05007 5.2 4.92507 5.2C4.57507 5.2 4.42507 5.425 4.42507 5.4C4.35007 5.375 4.27507 5.375 4.20007 5.375C3.05007 5.375 3.62507 6.15 3.62507 6.15L3.75007 6C3.47507 5.65 3.72507 5.45 4.22507 5.45C4.30007 5.45 4.35007 5.45 4.40007 5.475C4.22507 5.725 4.55007 5.95 4.55007 5.95L4.62507 5.825C4.45007 5.7 4.42507 5.275 4.92507 5.275C5.05007 5.275 5.15007 5.3 5.25007 5.375C5.25007 5.4 5.22507 5.75 5.20007 5.8L5.40007 5.975L5.60007 5.8C5.57507 5.725 5.55007 5.4 5.55007 5.375C5.62507 5.325 5.75007 5.275 5.87507 5.275C6.40007 5.275 6.40007 5.7 6.17507 5.825L6.25007 5.95C6.25007 5.95 6.52507 5.725 6.40007 5.475C6.45007 5.475 6.52507 5.45 6.57507 5.45C7.17507 5.45 7.20007 5.9 7.05007 6L7.15007 6.15C7.10007 6.15 7.37507 5.8 7.02507 5.5Z" fill="#C8B100"/>
    <path d="M5.2251 5.025C5.2251 4.95 5.3001 4.875 5.3751 4.875C5.4751 4.875 5.5251 4.95 5.5251 5.025C5.5251 5.1 5.4501 5.175 5.3751 5.175C5.3001 5.175 5.2251 5.1 5.2251 5.025Z" fill="#005BBF"/>
    <path d="M5.3251 4.59998V4.67498H5.2501V4.74998H5.3251V4.99998H5.2251V5.07498H5.5251L5.5501 5.02498L5.5251 4.99998H5.4251V4.74998H5.5001V4.67498H5.4251V4.59998H5.3251Z" fill="#C8B100"/>
    <path d="M5.3751 7.07495C4.9751 7.07495 4.6251 7.02495 4.3501 6.94995C4.6251 6.87495 4.9751 6.82495 5.3751 6.82495C5.7751 6.82495 6.1251 6.87495 6.4001 6.94995C6.1501 7.02495 5.7751 7.07495 5.3751 7.07495Z" fill="#ED4C5C"/>
    <path d="M5.4001 11.4C4.9251 11.4 4.4751 11.275 4.0751 11.1C3.7751 10.95 3.6001 10.675 3.6001 10.35V9.15002H7.2001V10.35C7.2001 10.675 7.0001 10.975 6.7251 11.1C6.3251 11.3 5.8751 11.4 5.4001 11.4Z" fill="white"/>
    <path d="M5.375 7.15002H7.175V9.15002H5.375V7.15002Z" fill="white"/>
    <path d="M5.4001 10.35C5.4001 10.825 5.0001 11.2 4.5001 11.2C4.0001 11.2 3.6001 10.825 3.6001 10.35V9.15002H5.4001V10.35Z" fill="#ED4C5C"/>
    <path d="M3.97498 11.05C4.02498 11.075 4.09998 11.125 4.19998 11.15V9.09998H3.99998L3.97498 11.05Z" fill="#C8B100"/>
    <path d="M3.57507 10.325C3.57507 10.575 3.67507 10.775 3.77507 10.875V9.09998H3.57507V10.325Z" fill="#C8B100"/>
    <path d="M4.375 11.2H4.575V9.09998H4.375V11.2Z" fill="#C7B500"/>
    <path d="M4.7749 11.15C4.8499 11.125 4.9499 11.075 4.9999 11.05V9.09998H4.7999L4.7749 11.15Z" fill="#C8B100"/>
    <path d="M3.57507 7.15002H5.37507V9.15002H3.57507V7.15002Z" fill="#ED4C5C"/>
    <path d="M5.20007 10.875C5.30007 10.8 5.37507 10.625 5.40007 10.425V9.125H5.20007V10.875Z" fill="#C8B100"/>
    <path d="M7.20002 9.15015V10.3501C7.20002 10.8251 6.80002 11.2001 6.30002 11.2001C5.80002 11.2001 5.40002 10.8251 5.40002 10.3501V9.15015H7.20002Z" fill="#ED4C5C"/>
    <path d="M6.55003 7.5001C6.62503 7.65009 6.62503 8.02509 6.40003 7.95009C6.45003 7.97509 6.47503 8.15009 6.55003 8.25009C6.67503 8.40009 6.82503 8.27509 6.80003 8.1001C6.75003 7.8251 6.77503 7.65009 6.82503 7.3751C6.82503 7.4001 6.95003 7.40009 7.00003 7.3501C6.97503 7.42509 6.95003 7.5251 7.00003 7.5251C6.95003 7.6001 6.82503 7.7251 6.80003 7.8001C6.77503 7.97509 7.05003 8.30009 6.75003 8.37509C6.55003 8.42509 6.67503 8.57509 6.75003 8.65009C6.75003 8.65009 6.65003 8.97509 6.70003 8.95009C6.50003 9.02509 6.55003 8.85009 6.55003 8.85009C6.65003 8.55009 6.37503 8.52509 6.40003 8.47509C6.15003 8.45009 6.42503 8.70009 6.20003 8.70009C6.15003 8.70009 6.05003 8.75009 6.05003 8.75009C5.77503 8.72509 5.92503 8.47509 6.02503 8.50009C6.10003 8.52509 6.17503 8.65009 6.17503 8.47509C6.17503 8.47509 6.05003 8.27509 6.37503 8.27509C6.25003 8.27509 6.17503 8.17509 6.12503 8.05009C6.07503 8.07509 6.00003 8.20009 5.72503 8.22509C5.72503 8.22509 5.65003 7.95009 5.72503 8.00009C5.82503 8.05009 5.87503 8.05009 5.97503 7.95009C5.92503 7.87509 5.62503 7.77509 5.67503 7.60009C5.67503 7.55009 5.82503 7.47509 5.82503 7.47509C5.80003 7.60009 5.87503 7.72509 6.02503 7.72509C6.22503 7.75009 6.15003 7.67509 6.17503 7.62509C6.20003 7.57509 6.35003 7.6501 6.30003 7.5251C6.30003 7.5001 6.12503 7.4751 6.17503 7.4001C6.27503 7.2751 6.42503 7.3751 6.55003 7.5001Z" fill="#ED4C5C"/>
    <path d="M5.4001 11.15L5.3501 11.025L5.4001 10.875L5.4501 11.025L5.4001 11.15Z" fill="#ED4C5C"/>
    <path d="M4.1251 7.575V7.7H4.1751V7.8H4.0501V8.05H4.1251V8.6H3.9751V8.875H5.0001V8.6H4.8751V8.05H4.9251V7.8H4.8001V7.7H4.8751V7.575H4.6251V7.7H4.6751V7.8H4.5501V7.5H4.6251V7.375H4.3501V7.5H4.4251V7.8H4.3001V7.7H4.3501V7.575H4.1251Z" fill="#C8B100"/>
    <path d="M6.95002 10.65V9.40002H5.65002V10.65L6.25002 10.925H6.32502L6.95002 10.65ZM6.25002 9.50002V9.92502L5.82502 9.50002H6.25002ZM5.72502 9.52502L6.22502 10.025L5.72502 10.525V9.52502ZM5.77502 10.625L6.25002 10.15V10.85L5.77502 10.625ZM6.32502 10.825V10.125L6.80002 10.6L6.32502 10.825ZM6.85002 10.525L6.35002 10.025L6.85002 9.52502V10.525ZM6.32502 9.50002H6.75002L6.32502 9.92502V9.50002Z" fill="#C8B100"/>
    <path d="M4.79993 9.12498C4.79993 8.74998 5.04993 8.47498 5.37493 8.47498C5.69993 8.47498 5.94993 8.77498 5.94993 9.12498C5.94993 9.47498 5.69993 9.77497 5.37493 9.77497C5.04993 9.77497 4.79993 9.49998 4.79993 9.12498Z" fill="#ED4C5C"/>
    <path d="M4.9751 9.12502C4.9751 8.85002 5.1501 8.65002 5.3751 8.65002C5.6001 8.65002 5.7751 8.87502 5.7751 9.12502C5.7751 9.40002 5.6001 9.60003 5.3751 9.60003C5.1751 9.62503 4.9751 9.40002 4.9751 9.12502Z" fill="#005BBF"/>
    <path d="M5.2001 8.80005L5.1001 9.07505L5.1751 9.10005L5.1251 9.20005H5.2751L5.2251 9.10005L5.3001 9.07505L5.2001 8.80005Z" fill="#C8B100"/>
    <path d="M5.5751 8.80005L5.4751 9.07505L5.5501 9.10005L5.5001 9.20005H5.6501L5.6251 9.10005L5.7001 9.07505L5.5751 8.80005Z" fill="#C8B100"/>
    <path d="M5.40002 9.125L5.27502 9.4L5.35002 9.425L5.32502 9.525H5.45002L5.42502 9.425L5.50002 9.4L5.40002 9.125Z" fill="#C8B100"/>
</svg>
